<svg width="45" height="45" viewBox="0 0 45 45" fill="none" xmlns="http://www.w3.org/2000/svg">
<path fill-rule="evenodd" clip-rule="evenodd" d="M22.5 45C34.9264 45 45 34.9264 45 22.5C45 10.0736 34.9264 0 22.5 0C10.0736 0 0 10.0736 0 22.5C0 34.9264 10.0736 45 22.5 45ZM22.5 10C29.4 10 35 15.6 35 22.5C35 28.9875 30.0625 34.3125 23.75 34.9375V26.25H27.5V22.5H23.75V20C23.75 19.3125 24.3125 18.75 25 18.75H27.5V15H24.375C21.9625 15 20 16.9625 20 19.375V22.5H17.5V26.25H20V34.75C14.3 33.5875 10 28.55 10 22.5C10 15.6 15.6 10 22.5 10Z" fill="black"/>
</svg>
