<svg width="45" height="45" viewBox="0 0 45 45" fill="none" xmlns="http://www.w3.org/2000/svg">
<path fill-rule="evenodd" clip-rule="evenodd" d="M22.5 45C34.9264 45 45 34.9264 45 22.5C45 10.0736 34.9264 0 22.5 0C10.0736 0 0 10.0736 0 22.5C0 34.9264 10.0736 45 22.5 45ZM12.2367 12.2367C13.467 11.0064 15.1351 10.3144 16.875 10.3125H28.125C29.8649 10.3144 31.533 11.0064 32.7633 12.2367C33.9936 13.467 34.6856 15.1351 34.6875 16.875V28.125C34.6856 29.8649 33.9936 31.533 32.7633 32.7633C31.533 33.9936 29.8649 34.6856 28.125 34.6875H16.875C15.1351 34.6856 13.467 33.9936 12.2367 32.7633C11.0064 31.533 10.3144 29.8649 10.3125 28.125V16.875C10.3144 15.1351 11.0064 13.467 12.2367 12.2367ZM19.3749 27.177C20.2999 27.7951 21.3875 28.125 22.5 28.125C23.9914 28.1234 25.4212 27.5303 26.4758 26.4758C27.5303 25.4212 28.1234 23.9914 28.125 22.5C28.125 21.3875 27.7951 20.2999 27.177 19.3749C26.5589 18.4499 25.6804 17.7289 24.6526 17.3032C23.6248 16.8774 22.4938 16.766 21.4026 16.9831C20.3115 17.2001 19.3092 17.7359 18.5225 18.5225C17.7359 19.3092 17.2001 20.3115 16.9831 21.4026C16.766 22.4938 16.8774 23.6248 17.3032 24.6526C17.7289 25.6804 18.4499 26.5589 19.3749 27.177ZM28.75 16.638C28.9812 16.7925 29.2531 16.875 29.5312 16.875C29.9042 16.875 30.2619 16.7268 30.5256 16.4631C30.7893 16.1994 30.9375 15.8417 30.9375 15.4688C30.9375 15.1906 30.855 14.9187 30.7005 14.6875C30.546 14.4562 30.3264 14.276 30.0694 14.1695C29.8124 14.0631 29.5297 14.0353 29.2569 14.0895C28.9841 14.1438 28.7335 14.2777 28.5369 14.4744C28.3402 14.671 28.2063 14.9216 28.152 15.1944C28.0978 15.4672 28.1256 15.7499 28.232 16.0069C28.3385 16.2639 28.5187 16.4835 28.75 16.638ZM25.618 24.5834C26.0301 23.9667 26.25 23.2417 26.25 22.5C26.25 21.5054 25.8549 20.5516 25.1516 19.8483C24.4484 19.1451 23.4946 18.75 22.5 18.75C21.7583 18.75 21.0333 18.9699 20.4166 19.382C19.7999 19.794 19.3193 20.3797 19.0355 21.0649C18.7516 21.7502 18.6774 22.5042 18.8221 23.2316C18.9667 23.959 19.3239 24.6272 19.8483 25.1516C20.3728 25.6761 21.041 26.0333 21.7684 26.1779C22.4958 26.3226 23.2498 26.2484 23.9351 25.9645C24.6203 25.6807 25.206 25.2001 25.618 24.5834Z" fill="#363636"/>
</svg>
