<svg width="185" height="38" viewBox="0 0 185 38" fill="none" xmlns="http://www.w3.org/2000/svg">
<path d="M14 14.4688L18.375 6.96875C20.2708 7.46875 21.9533 8.38542 23.4225 9.71875C24.8917 11.0521 25.9592 12.6354 26.625 14.4688H14ZM10.5313 17.5938L6.25001 10.0938C7.37501 8.98958 8.68251 8.11458 10.1725 7.46875C11.6625 6.82292 13.2717 6.5 15 6.5C15.2708 6.5 15.5833 6.51583 15.9375 6.5475C16.2917 6.57917 16.6146 6.61542 16.9063 6.65625L10.5313 17.5938ZM2.90626 22.125C2.78126 21.625 2.6821 21.1146 2.60876 20.5937C2.53543 20.0729 2.49918 19.5417 2.50001 19C2.50001 17.5208 2.7396 16.125 3.21876 14.8125C3.69793 13.5 4.37501 12.3021 5.25001 11.2188L11.5625 22.125H2.90626ZM11.6563 31.0312C9.76043 30.5312 8.07293 29.6146 6.59376 28.2812C5.1146 26.9479 4.04168 25.3646 3.37501 23.5312H15.9688L11.6563 31.0312ZM15 31.5C14.6875 31.5 14.3696 31.4792 14.0463 31.4375C13.7229 31.3958 13.4158 31.3542 13.125 31.3125L19.4688 20.4062L23.75 27.9062C22.625 29.0104 21.3175 29.8854 19.8275 30.5313C18.3375 31.1771 16.7283 31.5 15 31.5ZM24.75 26.7813L18.4375 15.875H27.0938C27.2188 16.375 27.3179 16.8854 27.3913 17.4063C27.4646 17.9271 27.5008 18.4583 27.5 19C27.5 20.4583 27.2446 21.8542 26.7338 23.1875C26.2229 24.5208 25.5617 25.7188 24.75 26.7813Z" fill="#F89556"/>
<path d="M53.5469 8.26562H57.2188V15.9219H53.5469C52.5052 13.1719 50.6979 11.7969 48.125 11.7969C46 11.7969 44.3906 12.5208 43.2969 13.9688C42.2135 15.4167 41.6719 17.151 41.6719 19.1719C41.6719 21.2865 42.2448 23 43.3906 24.3125C44.5469 25.6146 46.0156 26.2656 47.7969 26.2656C49.2552 26.2656 50.5312 25.7708 51.625 24.7812C52.7188 23.7917 53.4583 22.4167 53.8438 20.6562L58.125 22.7031C56.5 27.7448 52.9219 30.2656 47.3906 30.2656C43.4844 30.2656 40.5365 29.2135 38.5469 27.1094C36.5677 25.0052 35.5781 22.3438 35.5781 19.125C35.5781 16.8333 36.0938 14.8281 37.125 13.1094C38.1562 11.3906 39.5417 10.099 41.2812 9.23438C43.0312 8.35938 44.9479 7.92188 47.0312 7.92188C49.625 7.92188 51.7969 8.59896 53.5469 9.95312V8.26562ZM78.8031 26.5156V30H71.5375V28.8125C70.2354 29.75 68.8604 30.2188 67.4125 30.2188C65.9125 30.2188 64.6156 29.7917 63.5219 28.9375C62.4385 28.0833 61.8969 26.9375 61.8969 25.5C61.8969 24.0521 62.4698 22.8385 63.6156 21.8594C64.7615 20.8802 66.2406 20.3906 68.0531 20.3906C69.0635 20.3906 70.225 20.6458 71.5375 21.1562V20.2344C71.5375 19.4635 71.2771 18.8333 70.7563 18.3438C70.2354 17.8438 69.5375 17.5938 68.6625 17.5938C67.5792 17.5938 66.6521 17.9896 65.8813 18.7812L61.9906 18.0781C63.1156 15.6927 65.5583 14.5 69.3188 14.5C70.7771 14.5 71.9854 14.6667 72.9438 15C73.9021 15.3229 74.6156 15.7448 75.0844 16.2656C75.5531 16.7865 75.8813 17.3594 76.0688 17.9844C76.2667 18.599 76.3656 19.6042 76.3656 21V26.5156H78.8031ZM71.5375 24.4062C70.3708 23.6771 69.4385 23.3125 68.7406 23.3125C68.1885 23.3125 67.6833 23.474 67.225 23.7969C66.7771 24.1198 66.5531 24.5885 66.5531 25.2031C66.5531 25.7552 66.7354 26.2292 67.1 26.625C67.4646 27.0208 67.9333 27.2188 68.5063 27.2188C69.4021 27.2188 70.4125 26.6927 71.5375 25.6406V24.4062ZM91.1219 33.3438V36.8281H80.7156V33.3438H83.2625V18.375H81.1375V14.875H88.0906V16.7656C89.4344 15.349 90.9344 14.6406 92.5906 14.6406C94.5906 14.6406 96.1635 15.4375 97.3094 17.0312C98.4656 18.6146 99.0438 20.4635 99.0438 22.5781C99.0438 24.8177 98.45 26.6719 97.2625 28.1406C96.075 29.6094 94.4917 30.3438 92.5125 30.3438C90.8979 30.3438 89.424 29.7135 88.0906 28.4531V33.3438H91.1219ZM94.0906 22.4844C94.0906 21.1615 93.8146 20.1719 93.2625 19.5156C92.7208 18.8594 92.0021 18.5312 91.1063 18.5312C90.2 18.5312 89.4604 18.8698 88.8875 19.5469C88.325 20.2135 88.0438 21.2135 88.0438 22.5469C88.0438 23.7448 88.325 24.7083 88.8875 25.4375C89.45 26.1667 90.2 26.5312 91.1375 26.5312C92.0021 26.5312 92.7104 26.2031 93.2625 25.5469C93.8146 24.8906 94.0906 23.8698 94.0906 22.4844ZM102.409 18.375V14.875H104.331V12.5L109.159 9.03125V14.875H111.941V18.375H109.159V24.9219C109.159 25.5156 109.232 25.9167 109.378 26.125C109.534 26.3229 109.883 26.4219 110.425 26.4219C110.873 26.4219 111.378 26.3177 111.941 26.1094V29.4531C110.701 29.9635 109.488 30.2188 108.3 30.2188C105.654 30.2188 104.331 28.9062 104.331 26.2812V18.375H102.409ZM133.65 26.5156V30H126.384V28.7188C124.936 29.7188 123.468 30.2188 121.978 30.2188C120.52 30.2188 119.374 29.8125 118.541 29C117.718 28.1771 117.306 27.0208 117.306 25.5312V18.375H115.041V14.875H122.119V24.2969C122.119 25.0469 122.233 25.5625 122.463 25.8438C122.692 26.1146 123.108 26.25 123.713 26.25C124.525 26.25 125.416 25.8906 126.384 25.1719V18.375H124.056V14.875H131.213V26.5156H133.65ZM147.531 26.5156V30H136.891V26.5156H139.688V18.375H137.062V14.875H144.109V18.7188C144.38 17.6146 144.995 16.6615 145.953 15.8594C146.922 15.0469 148.062 14.6406 149.375 14.6406C149.594 14.6406 149.854 14.6458 150.156 14.6562V19.2188C148.938 19.2188 147.943 19.3542 147.172 19.625C146.401 19.8958 145.766 20.4896 145.266 21.4062C144.766 22.3229 144.516 23.4062 144.516 24.6562V26.5156H147.531ZM156.256 10.5469C156.256 9.81771 156.511 9.19271 157.022 8.67188C157.543 8.15104 158.168 7.89062 158.897 7.89062C159.636 7.89062 160.261 8.15104 160.772 8.67188C161.282 9.19271 161.537 9.81771 161.537 10.5469C161.537 11.276 161.277 11.901 160.756 12.4219C160.246 12.9323 159.626 13.1875 158.897 13.1875C158.178 13.1875 157.558 12.9271 157.037 12.4062C156.517 11.8854 156.256 11.2656 156.256 10.5469ZM154.131 18.375V14.875H161.256V26.5156H163.506V30H154.131V26.5156H156.428V18.375H154.131ZM174.903 30.3438C172.674 30.3438 170.789 29.6406 169.247 28.2344C167.716 26.8177 166.95 24.8802 166.95 22.4219C166.95 19.9635 167.716 18.0312 169.247 16.625C170.789 15.2083 172.674 14.5 174.903 14.5C177.143 14.5 179.028 15.2083 180.559 16.625C182.091 18.0312 182.856 19.9635 182.856 22.4219C182.856 24.849 182.096 26.776 180.575 28.2031C179.065 29.6302 177.174 30.3438 174.903 30.3438ZM174.887 26.5938C175.783 26.5938 176.507 26.25 177.059 25.5625C177.622 24.875 177.903 23.7969 177.903 22.3281C177.903 21.0365 177.632 20.0312 177.091 19.3125C176.549 18.5833 175.815 18.2188 174.887 18.2188C172.898 18.2188 171.903 19.6562 171.903 22.5312C171.903 23.7083 172.148 24.6823 172.637 25.4531C173.137 26.2135 173.887 26.5938 174.887 26.5938Z" fill="#1C1F22"/>
</svg>
