<svg width="45" height="45" viewBox="0 0 45 45" fill="none" xmlns="http://www.w3.org/2000/svg">
<path fill-rule="evenodd" clip-rule="evenodd" d="M22.5 45C34.9264 45 45 34.9264 45 22.5C45 10.0736 34.9264 0 22.5 0C10.0736 0 0 10.0736 0 22.5C0 34.9264 10.0736 45 22.5 45ZM26.9252 11.25C26.9248 12.5468 27.3957 13.7995 28.2502 14.775C29.9502 16.7375 32.3002 16.625 32.3002 16.625V20.4875C30.3719 20.4908 28.4914 19.8873 26.9252 18.7625V26.625C26.9252 30.5625 23.7377 33.75 19.8127 33.75C16.1502 33.75 12.7002 30.7875 12.7002 26.625C12.7002 22.35 16.4752 19 20.7877 19.575V23.525C18.6502 22.8625 16.5752 24.475 16.5752 26.625C16.5752 28.425 18.0502 29.875 19.8252 29.875C20.6645 29.8749 21.471 29.5491 22.0749 28.9662C22.6788 28.3833 23.0329 27.5888 23.0627 26.75V11.25H26.9252Z" fill="black"/>
</svg>
