<svg width="45" height="45" viewBox="0 0 45 45" fill="none" xmlns="http://www.w3.org/2000/svg">
<path fill-rule="evenodd" clip-rule="evenodd" d="M45 22.5C45 34.9264 34.9264 45 22.5 45C10.0736 45 0 34.9264 0 22.5C0 10.0736 10.0736 0 22.5 0C34.9264 0 45 10.0736 45 22.5ZM28.4033 25.0752C28.084 24.9111 26.4932 24.1318 26.1973 24.0264C25.9014 23.915 25.6846 23.8623 25.4707 24.1904C25.2539 24.5156 24.6387 25.2393 24.4453 25.459C24.2578 25.6758 24.0674 25.7021 23.748 25.541C21.8496 24.5918 20.6045 23.8477 19.3535 21.7002C19.1696 21.3827 19.2923 21.2544 19.5437 20.9913C19.7447 20.781 20.0281 20.4845 20.3027 19.9365C20.4082 19.7197 20.3555 19.5352 20.2734 19.3711C20.2189 19.2619 19.9153 18.5226 19.6389 17.8492L19.6384 17.848C19.4995 17.5097 19.3674 17.1881 19.2773 16.9717C19.0483 16.4185 18.8125 16.4189 18.6256 16.4193C18.5996 16.4193 18.5747 16.4194 18.5508 16.418C18.3633 16.4062 18.1494 16.4062 17.9326 16.4062C17.7158 16.4062 17.3672 16.4883 17.0713 16.8076C17.0517 16.8292 17.0297 16.8528 17.0057 16.8785C16.6683 17.2401 15.9404 18.0204 15.9404 19.5029C15.9404 21.0515 17.0411 22.5528 17.2423 22.8272L17.2559 22.8457C17.2672 22.8606 17.2877 22.89 17.3172 22.9321C17.7162 23.5024 19.7556 26.4169 22.7754 27.7236C24.8262 28.6084 25.6289 28.6846 26.6543 28.5322C27.2783 28.4385 28.5645 27.7529 28.8311 26.9941C29.0977 26.2383 29.0977 25.5908 29.0186 25.4561C28.9523 25.3359 28.7897 25.2588 28.5511 25.1459C28.5047 25.1239 28.4554 25.1005 28.4033 25.0752ZM31.7842 13.2158C32.9941 14.4287 33.9434 15.8408 34.6055 17.4141C35.2881 19.043 35.6338 20.7744 35.625 22.5586C35.6162 24.334 35.2646 26.0537 34.5732 27.6709C33.9082 29.2324 32.9561 30.6328 31.7461 31.8311C30.5391 33.0293 29.1299 33.9668 27.5625 34.6201C25.96 35.2852 24.2578 35.625 22.5029 35.625H22.4414C20.4082 35.6162 18.3896 35.1299 16.585 34.2188H12.1289C11.3848 34.2188 10.7812 33.6152 10.7812 32.8711V28.418C9.87012 26.6133 9.38379 24.5947 9.375 22.5615C9.36621 20.7861 9.70605 19.0605 10.3799 17.4375C11.0303 15.8701 11.9707 14.4639 13.1689 13.2539C14.3672 12.0439 15.7676 11.0947 17.3291 10.4268C18.9463 9.73535 20.666 9.38379 22.4414 9.375H22.5C24.2637 9.375 25.9746 9.71777 27.5859 10.3945C29.1621 11.0537 30.5742 12.0059 31.7842 13.2158ZM22.5 33.3984C25.4004 33.3984 28.125 32.2793 30.1787 30.2461C32.2412 28.2012 33.3867 25.4678 33.4043 22.5498C33.4102 21.0674 33.126 19.6318 32.5576 18.2783C32.0098 16.9717 31.2187 15.7969 30.2139 14.792C29.2061 13.7842 28.0342 12.9961 26.7275 12.4482C25.3887 11.8857 23.9678 11.6016 22.5029 11.6016H22.4531C19.5322 11.6133 16.7988 12.7559 14.7539 14.8213C12.7061 16.8867 11.5898 19.6289 11.6016 22.5498C11.6104 24.3164 12.0498 26.0713 12.876 27.6211L13.0078 27.8672V31.9922H17.1328L17.3789 32.124C18.9287 32.9502 20.6836 33.3896 22.4502 33.3984H22.5Z" fill="#363636"/>
</svg>
